<svg width="16" height="16" xmlns="http://www.w3.org/2000/svg" fill="none">

 <g>
  <title>Layer 1</title>
  <path id="svg_1" d="m4.864,12.307c0,-0.433 0.023,-0.864 0.069,-1.292c0.05,-0.433 0.132,-0.86 0.246,-1.279l-0.383,0.014l-0.376,0a2.67,2.67 0 0 1 -0.93,-0.164a2.479,2.479 0 0 1 -0.772,-0.458a2.33,2.33 0 0 1 -0.527,-0.711a2.186,2.186 0 0 1 -0.191,-0.923c0,-0.146 0.014,-0.292 0.041,-0.437l0.547,-3.057c0.077,-0.433 0.223,-0.832 0.437,-1.196a3.68,3.68 0 0 1 1.873,-1.58a3.516,3.516 0 0 1 1.737,-0.19c0.16,0.022 0.317,0.054 0.471,0.095l4.505,1.244a1.997,1.997 0 0 1 0.937,0.581c0.127,0.132 0.235,0.283 0.321,0.451c0.087,0.164 0.148,0.34 0.185,0.527l0.287,1.435c0.023,0.128 0.034,0.249 0.034,0.362c0,0.242 -0.043,0.47 -0.13,0.684a2.29,2.29 0 0 1 -0.348,0.581a2.622,2.622 0 0 1 -0.506,0.472a3.15,3.15 0 0 1 -0.595,0.342c-0.123,0.054 -0.24,0.111 -0.349,0.17a1.79,1.79 0 0 0 -0.321,0.226a8.51,8.51 0 0 0 -1.58,1.825a12.37,12.37 0 0 0 -0.587,1.012c-0.182,0.35 -0.37,0.72 -0.56,1.107c-0.16,0.329 -0.301,0.661 -0.424,0.999c-0.119,0.337 -0.244,0.676 -0.376,1.018a1.373,1.373 0 0 1 -0.445,0.602c-0.2,0.154 -0.437,0.232 -0.71,0.232c-0.165,0 -0.31,-0.03 -0.438,-0.089a1.342,1.342 0 0 1 -0.362,-0.266a2.583,2.583 0 0 1 -0.404,-0.513c-0.1,-0.182 -0.18,-0.372 -0.239,-0.567a3.333,3.333 0 0 1 -0.11,-0.609a7.5,7.5 0 0 1 -0.027,-0.65l0,0.002zm7.636,-6.577a0.91,0.91 0 0 0 -0.02,-0.19l-0.28,-1.436a1.104,1.104 0 0 0 -0.288,-0.561a1.122,1.122 0 0 0 -0.533,-0.328l-4.505,-1.245a1.968,1.968 0 0 0 -0.362,-0.075a3.16,3.16 0 0 0 -0.363,-0.021c-0.332,0 -0.649,0.06 -0.95,0.178a2.754,2.754 0 0 0 -1.415,1.196a2.727,2.727 0 0 0 -0.335,0.91l-0.547,3.055a1.413,1.413 0 0 0 -0.027,0.273a1.324,1.324 0 0 0 0.451,1.014a1.621,1.621 0 0 0 1.06,0.376c0.132,0 0.262,-0.002 0.39,-0.007c0.127,-0.004 0.257,-0.007 0.389,-0.007c0.123,0 0.237,0.023 0.342,0.069c0.11,0.04 0.203,0.102 0.28,0.184a0.824,0.824 0 0 1 0.192,0.274a0.78,0.78 0 0 1 0.075,0.341a0.377,0.377 0 0 1 -0.014,0.103a0.589,0.589 0 0 0 -0.007,0.096a0.363,0.363 0 0 0 -0.02,0.075a0.183,0.183 0 0 1 -0.014,0.068c-0.082,0.37 -0.146,0.736 -0.191,1.1a8.974,8.974 0 0 0 -0.055,1.594c0.009,0.16 0.032,0.314 0.068,0.464c0.041,0.146 0.096,0.29 0.164,0.431a1.536,1.536 0 0 0 0.363,0.444a0.205,0.205 0 0 0 0.095,0.021a0.283,0.283 0 0 0 0.199,-0.075a0.586,0.586 0 0 0 0.13,-0.171c0.05,-0.105 0.09,-0.212 0.123,-0.321c0.031,-0.114 0.066,-0.224 0.102,-0.329c0.191,-0.55 0.417,-1.089 0.677,-1.613c0.26,-0.528 0.533,-1.048 0.82,-1.558a9.439,9.439 0 0 1 2.044,-2.502c0.146,-0.128 0.294,-0.233 0.444,-0.315a6.66,6.66 0 0 1 0.493,-0.246c0.127,-0.055 0.252,-0.123 0.376,-0.205a1.491,1.491 0 0 0 0.56,-0.636a1.01,1.01 0 0 0 0.089,-0.424l0,-0.001z" fill="#000000"/>
  <path id="svg_2" d="m12.5,5.73a0.91,0.91 0 0 0 -0.02,-0.19l-0.28,-1.436a1.104,1.104 0 0 0 -0.288,-0.561a1.122,1.122 0 0 0 -0.533,-0.328l-4.505,-1.245a1.968,1.968 0 0 0 -0.362,-0.075a3.16,3.16 0 0 0 -0.363,-0.021c-0.332,0 -0.649,0.06 -0.95,0.178a2.754,2.754 0 0 0 -1.415,1.196a2.727,2.727 0 0 0 -0.335,0.91l-0.547,3.055a1.413,1.413 0 0 0 -0.027,0.273a1.324,1.324 0 0 0 0.451,1.014a1.621,1.621 0 0 0 1.06,0.376c0.132,0 0.262,-0.002 0.39,-0.007c0.127,-0.004 0.257,-0.007 0.389,-0.007c0.123,0 0.237,0.023 0.342,0.069c0.11,0.04 0.203,0.102 0.28,0.184a0.824,0.824 0 0 1 0.192,0.274a0.78,0.78 0 0 1 0.075,0.341a0.377,0.377 0 0 1 -0.014,0.103a0.589,0.589 0 0 0 -0.007,0.096a0.363,0.363 0 0 0 -0.02,0.075a0.183,0.183 0 0 1 -0.014,0.068c-0.082,0.37 -0.146,0.736 -0.191,1.1a8.974,8.974 0 0 0 -0.055,1.594c0.009,0.16 0.032,0.314 0.068,0.464c0.041,0.146 0.096,0.29 0.164,0.431a1.536,1.536 0 0 0 0.363,0.444a0.205,0.205 0 0 0 0.095,0.021a0.283,0.283 0 0 0 0.199,-0.075a0.586,0.586 0 0 0 0.13,-0.171c0.05,-0.105 0.09,-0.212 0.123,-0.321c0.031,-0.114 0.066,-0.224 0.102,-0.329c0.191,-0.55 0.417,-1.089 0.677,-1.613c0.26,-0.528 0.533,-1.048 0.82,-1.558a9.439,9.439 0 0 1 2.044,-2.502c0.146,-0.128 0.294,-0.233 0.444,-0.315a6.66,6.66 0 0 1 0.493,-0.246c0.127,-0.055 0.252,-0.123 0.376,-0.205a1.491,1.491 0 0 0 0.56,-0.636a1.01,1.01 0 0 0 0.089,-0.424l0,-0.001z" fill="#fff"/>
 </g>
</svg>