<svg width="16" height="16" xmlns="http://www.w3.org/2000/svg" fill="none">

 <g>
  <title>Layer 1</title>
  <path id="svg_1" d="m11.136,3.693c0,0.433 -0.023,0.864 -0.069,1.292c-0.05,0.433 -0.132,0.86 -0.246,1.279l0.383,-0.014l0.376,0c0.324,0 0.633,0.055 0.93,0.164c0.291,0.11 0.549,0.262 0.772,0.458c0.219,0.2 0.394,0.438 0.527,0.711c0.127,0.278 0.191,0.586 0.191,0.923c0,0.146 -0.014,0.292 -0.041,0.437l-0.547,3.057a3.59,3.59 0 0 1 -0.437,1.196a3.677,3.677 0 0 1 -1.873,1.58a3.517,3.517 0 0 1 -1.737,0.19a4.123,4.123 0 0 1 -0.471,-0.095l-4.505,-1.244a1.997,1.997 0 0 1 -0.937,-0.581a1.882,1.882 0 0 1 -0.321,-0.451a1.9,1.9 0 0 1 -0.185,-0.527l-0.287,-1.435a2.063,2.063 0 0 1 -0.034,-0.362c0,-0.242 0.043,-0.47 0.13,-0.684a2.29,2.29 0 0 1 0.349,-0.581c0.145,-0.178 0.314,-0.335 0.505,-0.472a3.12,3.12 0 0 1 0.595,-0.342c0.123,-0.054 0.24,-0.111 0.349,-0.17c0.11,-0.06 0.216,-0.135 0.321,-0.226a8.512,8.512 0 0 0 1.58,-1.825c0.209,-0.324 0.405,-0.661 0.587,-1.012c0.182,-0.35 0.37,-0.72 0.56,-1.107c0.16,-0.329 0.301,-0.661 0.424,-0.998c0.119,-0.338 0.244,-0.677 0.376,-1.019c0.096,-0.246 0.244,-0.447 0.445,-0.602c0.2,-0.155 0.437,-0.232 0.71,-0.232c0.165,0 0.31,0.03 0.438,0.089c0.123,0.06 0.244,0.148 0.362,0.266c0.165,0.165 0.299,0.335 0.404,0.513c0.1,0.182 0.18,0.372 0.239,0.568c0.055,0.196 0.091,0.398 0.11,0.608a7.6,7.6 0 0 1 0.027,0.65l0,-0.002zm-7.636,6.577c0,0.063 0.007,0.127 0.02,0.19l0.28,1.436c0.042,0.215 0.138,0.401 0.288,0.561c0.146,0.16 0.323,0.269 0.533,0.328l4.505,1.244c0.118,0.037 0.24,0.062 0.362,0.075c0.119,0.014 0.24,0.021 0.363,0.021c0.332,0 0.649,-0.06 0.95,-0.178a2.756,2.756 0 0 0 1.415,-1.196a2.72,2.72 0 0 0 0.335,-0.91l0.547,-3.055a1.432,1.432 0 0 0 0.027,-0.273a1.325,1.325 0 0 0 -0.451,-1.012a1.648,1.648 0 0 0 -0.486,-0.28a1.726,1.726 0 0 0 -0.574,-0.096c-0.132,0 -0.262,0.002 -0.39,0.007c-0.127,0.004 -0.257,0.007 -0.389,0.007a0.848,0.848 0 0 1 -0.342,-0.069a0.734,0.734 0 0 1 -0.28,-0.184a0.825,0.825 0 0 1 -0.191,-0.274a0.782,0.782 0 0 1 -0.076,-0.341c0,-0.037 0.005,-0.071 0.014,-0.103a0.589,0.589 0 0 0 0.007,-0.096a0.363,0.363 0 0 0 0.02,-0.075c0,-0.023 0.005,-0.045 0.014,-0.068c0.082,-0.37 0.146,-0.736 0.191,-1.1a8.97,8.97 0 0 0 0.055,-1.594a2.593,2.593 0 0 0 -0.068,-0.464a2.605,2.605 0 0 0 -0.164,-0.431a1.534,1.534 0 0 0 -0.363,-0.444a0.211,0.211 0 0 0 -0.095,-0.021a0.283,0.283 0 0 0 -0.199,0.075a0.586,0.586 0 0 0 -0.13,0.171a2.28,2.28 0 0 0 -0.123,0.321a5.572,5.572 0 0 1 -0.102,0.329c-0.191,0.55 -0.417,1.089 -0.677,1.613c-0.26,0.528 -0.533,1.048 -0.82,1.558a9.439,9.439 0 0 1 -2.044,2.502a2.485,2.485 0 0 1 -0.444,0.315a6.19,6.19 0 0 1 -0.493,0.246a2.34,2.34 0 0 0 -0.376,0.205a1.493,1.493 0 0 0 -0.56,0.636a1.01,1.01 0 0 0 -0.089,0.424z" fill="#000000"/>
  <path id="svg_2" d="m3.5,10.27c0,0.063 0.007,0.127 0.02,0.19l0.28,1.436c0.042,0.215 0.138,0.401 0.288,0.561c0.146,0.16 0.323,0.269 0.533,0.328l4.505,1.244c0.118,0.037 0.24,0.062 0.362,0.075c0.119,0.014 0.24,0.021 0.363,0.021c0.332,0 0.649,-0.06 0.95,-0.178a2.756,2.756 0 0 0 1.415,-1.196a2.72,2.72 0 0 0 0.335,-0.91l0.547,-3.055a1.432,1.432 0 0 0 0.027,-0.273a1.325,1.325 0 0 0 -0.451,-1.012a1.648,1.648 0 0 0 -0.486,-0.28a1.726,1.726 0 0 0 -0.574,-0.096c-0.132,0 -0.262,0.002 -0.39,0.007c-0.127,0.004 -0.257,0.007 -0.389,0.007a0.848,0.848 0 0 1 -0.342,-0.069a0.734,0.734 0 0 1 -0.28,-0.184a0.825,0.825 0 0 1 -0.191,-0.274a0.782,0.782 0 0 1 -0.076,-0.341c0,-0.037 0.005,-0.071 0.014,-0.103a0.589,0.589 0 0 0 0.007,-0.096a0.363,0.363 0 0 0 0.02,-0.075c0,-0.023 0.005,-0.045 0.014,-0.068c0.082,-0.37 0.146,-0.736 0.191,-1.1a8.97,8.97 0 0 0 0.055,-1.594a2.593,2.593 0 0 0 -0.068,-0.464a2.605,2.605 0 0 0 -0.164,-0.431a1.534,1.534 0 0 0 -0.363,-0.444a0.211,0.211 0 0 0 -0.095,-0.021a0.283,0.283 0 0 0 -0.199,0.075a0.586,0.586 0 0 0 -0.13,0.171a2.28,2.28 0 0 0 -0.123,0.321a5.572,5.572 0 0 1 -0.102,0.329c-0.191,0.55 -0.417,1.089 -0.677,1.613c-0.26,0.528 -0.533,1.048 -0.82,1.558a9.439,9.439 0 0 1 -2.044,2.502a2.485,2.485 0 0 1 -0.444,0.315a6.19,6.19 0 0 1 -0.493,0.246a2.34,2.34 0 0 0 -0.376,0.205a1.493,1.493 0 0 0 -0.56,0.636a1.01,1.01 0 0 0 -0.089,0.424z" fill="#fff"/>
 </g>
</svg>