<?xml version="1.0"?>
<svg width="16" height="16" xmlns="http://www.w3.org/2000/svg" xmlns:svg="http://www.w3.org/2000/svg">
 <g class="layer">
  <title>Layer 1</title>
  <path d="m1,4.5a2.5,2.5 0 0 1 2.5,-2.5l3,0a0.5,0.5 0 0 1 0,1l-3,0a1.5,1.5 0 0 0 -1.5,1.5l0,8a1.5,1.5 0 0 0 1.5,1.5l8,0a1.5,1.5 0 0 0 1.5,-1.5l0,-1a0.5,0.5 0 0 1 1,0l0,1a2.5,2.5 0 0 1 -2.5,2.5l-8,0a2.5,2.5 0 0 1 -2.5,-2.5l0,-8z" fill="#555" id="svg_1" style="--darkreader-inline-fill: #2b3033;"/>
  <path d="m15.11,6l-4.61,-4.5l0,2.67c-5.1,0 -6.35,4.33 -6.35,6.33c2.54,-2.23 4.5,-2.54 6.38,-2.73l-0.03,2.73l4.61,-4.5z" fill="#FAFAFA" id="svg_2" style="--darkreader-inline-fill: #cdcbc7;"/>
  <path d="m10.95,10.84l4.5,-4.42l0.06,-0.07a0.59,0.59 0 0 0 -0.06,-0.77l-4.5,-4.42l-0.06,-0.05a0.56,0.56 0 0 0 -0.89,0.47l0,2.13l-0.22,0.01c-3.57,0.29 -5.65,2.54 -6.15,6.63a0.57,0.57 0 0 0 0.95,0.48a9.62,9.62 0 0 1 4.42,-2.36a7.67,7.67 0 0 1 0.74,-0.12l0.26,-0.02l0,2.09l0.01,0.08a0.56,0.56 0 0 0 0.94,0.34zm-1.1,-6.12l1.15,-0.08l0,-2.03l3.45,3.39l-3.45,3.39l0,-2.16l-1.36,0.12l0,0a9.72,9.72 0 0 0 -4.83,2.01a6.49,6.49 0 0 1 1.48,-3.07a5.2,5.2 0 0 1 3.56,-1.57z" fill="#0078D4" id="svg_3" style="--darkreader-inline-fill: #004b93;"/>
 </g>
</svg>