<?xml version="1.0"?>
<svg width="16" height="16" xmlns="http://www.w3.org/2000/svg" xmlns:svg="http://www.w3.org/2000/svg">
 <g class="layer">
  <title>Layer 1</title>
  <path d="m8,2.01l1.75,3.54l0.23,0.47l0.52,0.08l3.91,0.57l-2.83,2.76l-0.37,0.36l0.08,0.52l0.67,3.89l-3.5,-1.83l-0.46,-0.25l-0.46,0.25l-3.5,1.83l0.67,-3.89l0.09,-0.52l-0.38,-0.36l-2.83,-2.76l3.91,-0.57l0.52,-0.08l0.23,-0.47l1.75,-3.54zm0,-1.63a0.49,0.49 0 0 0 -0.45,0.28l-2.19,4.45l-4.92,0.71a0.5,0.5 0 0 0 -0.27,0.86l3.55,3.46l-0.84,4.89a0.5,0.5 0 0 0 0.49,0.59c0.09,0 0.17,-0.02 0.24,-0.06l4.39,-2.31l4.39,2.31a0.49,0.49 0 0 0 0.62,-0.12a0.5,0.5 0 0 0 0.11,-0.41l-0.84,-4.89l3.55,-3.46a0.5,0.5 0 0 0 -0.27,-0.86l-4.91,-0.71l-2.2,-4.45a0.5,0.5 0 0 0 -0.45,-0.28z" fill="#0078D4" id="svg_2" style="--darkreader-inline-fill: #389de6;"/>
 </g>
</svg>